<svg width="759" height="396" viewBox="0 0 759 396" fill="none" xmlns="http://www.w3.org/2000/svg">
<path fill-rule="evenodd" clip-rule="evenodd" d="M0 395.721C1.81452 392.98 3.60076 390.23 5.36316 387.472C14.6881 372.88 23.3382 358.091 31.9689 343.336L31.9691 343.336C65.6387 285.774 99.0154 228.713 171.025 185.717C216.663 158.468 275.753 143.349 339.089 132.99C377.972 126.63 418.281 122.085 457.981 117.609L457.987 117.608L457.988 117.608C483.007 114.787 507.784 111.994 531.808 108.79C593.791 100.526 650.654 89.5413 692.701 68.2414C724.096 52.3376 747.33 30.6213 758.254 0H753.994C743.271 28.7964 721.089 49.3769 690.894 64.6731C649.51 85.6365 593.256 96.5614 531.28 104.825C507.434 108.005 482.724 110.792 457.726 113.611L457.72 113.612C417.92 118.101 377.387 122.672 338.443 129.042C274.982 139.422 215.28 154.635 168.975 182.283C96.0005 225.854 62.0182 283.981 28.3006 341.655C19.7264 356.321 11.1694 370.958 1.99261 385.318C1.33174 386.353 0.667615 387.385 0 388.417V395.721Z" fill="#F5F5F5" fill-opacity="0.15"/>
</svg>
