<svg width="222" height="915" viewBox="0 0 222 915" fill="none" xmlns="http://www.w3.org/2000/svg">
<path fill-rule="evenodd" clip-rule="evenodd" d="M222 0.677491C153.704 27.3026 113.194 62.9492 95.5202 106.752C76.9463 152.785 83.8121 207.297 109.151 268.762C145.183 356.167 116.052 442.202 78.6573 523.671C71.739 538.743 64.5264 553.682 57.4024 568.438C45.3372 593.427 33.5258 617.891 23.8271 641.588C8.38251 679.324 -1.90319 715.547 0.50492 749.641C2.93349 784.024 22.3149 810.617 49.6464 832.111C76.9496 853.583 112.374 870.122 147.305 884.414C159.474 889.392 171.564 894.092 183.244 898.632C196.901 903.941 209.997 909.031 222 914.094V909.757C210.299 904.857 197.611 899.924 184.465 894.813L184.456 894.81C172.815 890.284 160.813 885.618 148.82 880.711C113.938 866.44 78.9566 850.073 52.1191 828.967C25.31 807.883 6.81641 782.226 4.49498 749.359C2.15309 716.203 12.1507 680.677 27.529 643.103C37.1904 619.497 48.8974 595.253 60.9169 570.361L60.9181 570.358C68.0537 555.581 75.2994 540.575 82.2926 525.34C119.714 443.812 149.584 356.347 112.849 267.238C87.6881 206.203 81.2204 152.882 99.2296 108.248C116.218 66.1456 155.18 31.302 222 4.97358V0.677491Z" fill="#F5F5F5" fill-opacity="0.15"/>
</svg>
